# xmcd
#
# Track frame offsets:
#	150
#	12627
#	26493
#	44462
#	58031
#	71614
#	85487
#	99220
#	113081
#	127048
#	140814
#	154555
#	168106
#	181709
#	199236
#	212988
#	228229
#	241802
#	262295
#	276097
#	289822
#	303068
#
# Disc length: 4236 seconds
#
# Revision: 0
# Processed by: cddbd v1.5.2PL0 Copyright (c) Steve Scherf et al.
# Submitted via: EasyCDDAExtractor 2010.6.0.0
#
DISCID=3c108a16
DTITLE=Various Artist - Grand Prix Clubhits Cd 3
DYEAR=2012
DGENRE=Pop
TTITLE0=Danny - In The Club
TTITLE1=Alcazar - Alcastar
TTITLE2=E-Rotic - Queen Of Light
TTITLE3=Annika Eklund - Shanghain Valot
TTITLE4=Fabrizio Faniello - No Surrender
TTITLE5=Ditte Marie - Overflow
TTITLE6=Love Generation - Dance Alone
TTITLE7=Leon - Planet Of Blue
TTITLE8=Guide - Vi Lever Här, Vi Lever Nu
TTITLE9=Karmen Stavec - Se In Se
TTITLE10=Marquess -  La Histeria
TTITLE11=Sasa Lendero - Mandoline
TTITLE12=Rongedal - Just A Minute
TTITLE13=Mia - Hungriges Herz
TTITLE14=Kostas Martakis - Always And Forever
TTITLE15=BWO - Temple Of Love
TTITLE16=Sanna Nielsen - I'm In Love
TTITLE17=La Casa Azul - La Revolución Sexual
TTITLE18=Mans Zelmerlöv - Cara Mia
TTITLE19=Petra Frey - This Night Should Never End
TTITLE20=Jenny Silver - Something In Your Eyes
TTITLE21=Trackshittaz - Oida Taunz!
EXTD=
EXTT0=
EXTT1=
EXTT2=
EXTT3=
EXTT4=
EXTT5=
EXTT6=
EXTT7=
EXTT8=
EXTT9=
EXTT10=
EXTT11=
EXTT12=
EXTT13=
EXTT14=
EXTT15=
EXTT16=
EXTT17=
EXTT18=
EXTT19=
EXTT20=
EXTT21=
PLAYORDER=
